<?xml version="1.0" encoding="UTF-8" ?>
<!DOCTYPE svg PUBLIC "-//W3C//DTD SVG 1.1//EN" "http://www.w3.org/Graphics/SVG/1.1/DTD/svg11.dtd">
<svg width="151pt" height="113pt" viewBox="0 0 151 113" version="1.1" xmlns="http://www.w3.org/2000/svg">
<path fill="#ffffff" d=" M 0.00 0.00 L 151.00 0.00 L 151.00 113.00 L 0.00 113.00 L 0.00 0.00 Z" />
<path fill="#66cccc" d=" M 32.08 27.04 C 39.19 11.68 56.12 1.80 73.00 2.94 C 81.94 1.53 91.59 5.43 95.55 13.75 C 101.59 9.75 107.58 5.10 114.99 4.09 C 124.98 2.55 136.83 0.61 145.31 7.68 C 149.88 10.93 148.53 17.13 148.57 22.01 C 142.46 22.00 136.35 21.99 130.25 21.95 C 129.90 19.49 129.54 17.04 129.16 14.59 C 123.38 14.69 116.97 13.20 112.00 16.99 C 104.92 22.25 100.15 31.00 100.18 39.91 C 100.69 43.76 105.64 45.62 109.04 45.06 C 115.45 45.51 119.60 39.75 124.77 37.02 C 130.26 36.06 135.86 36.12 141.42 35.92 C 132.37 52.05 112.28 58.49 94.79 55.38 C 89.31 54.27 85.36 49.87 81.57 46.06 C 74.20 50.42 66.65 55.06 57.89 55.79 C 48.90 56.51 37.90 57.14 31.17 49.83 C 25.95 42.90 28.72 34.09 32.08 27.04 Z" />
<path fill="#ffffff" d=" M 50.58 23.75 C 55.13 19.24 59.88 13.30 67.02 13.95 C 69.91 13.92 74.71 13.21 76.54 16.39 C 77.64 18.77 77.60 21.44 77.76 24.00 C 68.70 24.01 59.64 23.97 50.58 23.75 Z" />
<path fill="#ffffff" d=" M 46.38 33.03 C 58.63 32.98 70.88 32.97 83.13 33.05 C 82.69 35.15 82.23 37.25 81.78 39.36 C 76.91 40.11 71.63 39.64 67.18 42.10 C 61.77 44.82 54.91 46.44 49.22 43.82 C 45.14 41.99 46.87 36.70 46.38 33.03 Z" />
<path fill="#66cccc" d=" M 14.61 75.09 C 21.43 65.11 32.63 57.81 45.01 58.05 C 54.60 57.20 68.29 56.79 72.88 67.41 C 85.86 57.82 104.06 54.56 119.01 60.98 C 125.68 63.93 124.50 71.31 124.42 77.22 C 118.77 77.01 113.07 77.35 107.46 76.68 C 105.79 74.02 104.34 71.24 102.78 68.51 C 87.60 66.78 75.11 81.46 76.06 95.91 C 76.98 99.51 82.03 100.22 85.04 100.06 C 91.52 100.60 95.48 94.61 100.67 91.88 C 106.20 91.06 111.81 91.09 117.39 90.92 C 110.96 101.88 99.10 109.02 86.59 110.48 C 79.84 110.89 72.32 112.26 66.09 108.81 C 62.89 107.20 60.26 104.77 57.76 102.26 C 58.19 104.81 58.65 107.40 59.09 109.96 C 52.70 109.97 46.31 109.99 39.93 109.97 C 40.30 108.02 40.69 106.07 41.07 104.12 C 32.93 108.85 23.63 111.77 14.10 110.93 C 10.52 110.13 5.91 109.71 3.78 106.25 C 1.86 103.12 2.43 99.14 4.04 96.02 C 6.77 89.16 13.28 84.39 20.15 82.21 C 29.70 79.41 39.78 79.68 49.42 77.36 C 52.57 76.71 53.62 73.33 55.07 70.90 C 50.46 69.10 45.03 66.83 40.29 69.65 C 32.32 73.75 23.56 75.46 14.61 75.09 Z" />
<path fill="#ffffff" d=" M 25.73 90.75 C 33.37 88.00 41.50 87.12 49.40 85.37 C 46.25 92.11 41.29 98.92 33.62 100.66 C 29.11 102.34 24.38 101.52 19.93 100.25 C 21.07 96.85 21.95 92.29 25.73 90.75 Z" />
</svg>
